<svg width="400" height="300" viewBox="0 0 400 300" fill="none" xmlns="http://www.w3.org/2000/svg">
<g filter="url(#filter0_dd)">
<mask id="path-1-outside-1" maskUnits="userSpaceOnUse" x="39.7466" y="8" width="344" height="275" fill="black">
<rect fill="white" x="39.7466" y="8" width="344" height="275"/>
<path d="M338.163 225.356C344.343 221.457 349.426 216.881 353.413 211.629C357.479 206.384 359.812 200.803 360.411 194.884C360.978 189.286 359.154 186.273 354.939 185.846C353.03 185.653 351.462 186.06 350.235 187.067C349.088 188.082 348.413 189.589 348.211 191.589C348.017 193.508 348.271 195.756 348.974 198.332L331.025 200.635C330.07 196.579 329.774 192.752 330.139 189.153C330.852 182.115 333.554 176.853 338.245 173.369C342.945 169.805 349.231 168.421 357.104 169.219C365.057 170.024 371.006 172.767 374.951 177.449C378.896 182.131 380.472 188.391 379.678 196.229C378.957 203.348 376.535 209.809 372.413 215.613C368.29 221.417 362.633 226.501 355.442 230.863L354.252 242.62L336.596 240.832L338.163 225.356ZM335.295 247.73L354.263 249.651L352.38 268.246L333.412 266.326L335.295 247.73Z"/>
<path d="M302.204 249.22C305.373 244.887 307.61 240.388 308.915 235.723C310.277 231.042 310.363 226.598 309.174 222.393C308.049 218.415 305.99 216.849 302.995 217.696C301.638 218.079 300.677 218.781 300.111 219.8C299.601 220.803 299.547 222.015 299.949 223.436C300.335 224.8 301.115 226.267 302.292 227.837L290.651 234.258C288.903 231.745 287.667 229.21 286.944 226.653C285.53 221.651 285.955 217.327 288.22 213.68C290.468 209.976 294.389 207.333 299.984 205.751C305.635 204.153 310.44 204.421 314.399 206.554C318.359 208.688 321.126 212.539 322.701 218.108C324.131 223.166 324.221 228.235 322.972 233.314C321.723 238.393 319.231 243.393 315.496 248.316L317.858 256.67L305.313 260.216L302.204 249.22ZM306.287 265.281L319.764 261.47L323.5 274.683L310.023 278.494L306.287 265.281Z"/>
<path d="M260.927 227.474C264.275 224.616 266.911 221.449 268.835 217.973C270.807 214.495 271.716 210.966 271.563 207.385C271.418 203.998 270.07 202.359 267.52 202.469C266.365 202.518 265.466 202.896 264.821 203.602C264.225 204.306 263.952 205.263 264.004 206.473C264.054 207.634 264.4 208.953 265.041 210.428L254.538 213.35C253.618 211.014 253.112 208.757 253.019 206.58C252.836 202.322 253.993 198.952 256.49 196.469C258.985 193.939 262.613 192.571 267.377 192.367C272.188 192.161 275.972 193.284 278.728 195.735C281.484 198.186 282.964 201.783 283.167 206.525C283.351 210.831 282.465 214.893 280.507 218.709C278.55 222.526 275.616 226.045 271.705 229.266L272.009 236.379L261.328 236.837L260.927 227.474ZM261.148 241.062L272.623 240.57L273.105 251.82L261.629 252.312L261.148 241.062Z"/>
<path d="M87.906 223.574L96.1804 222.681L109.864 247.072L107.081 221.505L116.801 220.456L122.58 273.558L114.634 274.415L100.736 248.057L103.733 275.592L93.6852 276.676L87.906 223.574Z"/>
<path d="M130.89 218.936L144.286 217.49L159.982 269.522L149.146 270.691L146.153 259.672L138.338 260.516L137.72 271.924L126.622 273.122L130.89 218.936ZM144.273 252.778L139.195 232.367L138.626 253.387L144.273 252.778Z"/>
<path d="M159.639 215.834L172.247 214.473L181.452 244.721L184.396 213.163L196.545 211.852L203.243 264.854L194.903 265.754L190.073 230.525L187.745 266.527L180.325 267.327L169.884 232.438L172.97 268.121L164.498 269.035L159.639 215.834Z"/>
<path d="M202.527 211.206L226.431 208.627L227.302 216.625L215.153 217.936L216.587 231.113L225.846 230.114L226.731 238.243L217.471 239.242L219.198 255.107L231.478 253.782L232.342 261.715L208.307 264.308L202.527 211.206Z"/>
<path d="M255.429 37.6706L265.373 35.0112L270.734 54.9816L279.351 52.6767L273.99 32.7064L283.934 30.047L297.013 78.7699L287.07 81.4293L281.273 59.8348L272.655 62.1396L278.452 83.7341L268.509 86.3935L255.429 37.6706Z"/>
<path d="M290.179 28.3766L311.452 22.6871L313.293 29.5444L301.903 32.5906L305.375 45.5233L314.173 43.1701L316.03 50.0876L307.232 52.4407L311.333 67.7193L322.843 64.6408L324.652 71.3778L303.258 77.0996L290.179 28.3766Z"/>
<path d="M316.059 21.4549L325.942 18.8116L337.213 60.7975L348.723 57.7191L350.532 64.4561L329.139 70.1778L316.059 21.4549Z"/>
<path d="M341.527 14.6433L351.41 12L362.681 53.9859L374.192 50.9075L376 57.6445L354.607 63.3662L341.527 14.6433Z"/>
<path d="M181.514 132.567L191.893 129.791L213.051 173.281L204.43 175.587L200.023 165.965L192.763 167.907L193.71 178.454L184.919 180.805L181.514 132.567ZM197.566 160.433L189.832 142.72L192.064 161.904L197.566 160.433Z"/>
<path d="M228.934 169.701C224.056 171.005 220.247 170.628 217.506 168.57C214.755 166.475 212.716 162.954 211.389 158.01L206.981 141.592C205.624 136.535 205.602 132.455 206.918 129.352C208.26 126.202 211.389 123.97 216.305 122.655C220.994 121.401 224.611 121.667 227.158 123.454C229.732 125.192 231.591 128.194 232.736 132.459L233.77 136.309L224.695 138.736L223.555 134.49C223.19 133.131 222.821 132.057 222.447 131.267C222.11 130.467 221.588 129.879 220.879 129.502C220.197 129.077 219.289 129.017 218.155 129.32C216.453 129.775 215.504 130.616 215.306 131.842C215.108 133.068 215.293 134.738 215.861 136.851L221.453 157.685C222.031 159.836 222.745 161.364 223.596 162.269C224.447 163.174 225.647 163.42 227.198 163.005C228.786 162.58 229.665 161.779 229.835 160.601C229.995 159.385 229.791 157.72 229.224 155.607L228.023 151.134L237.098 148.707L238.116 152.5C239.291 156.878 239.239 160.533 237.959 163.464C236.669 166.358 233.661 168.437 228.934 169.701Z"/>
<path d="M241.21 124.003L234.12 125.9L232.266 118.993L255.748 112.713L257.602 119.619L250.625 121.485L261.081 160.435L251.666 162.953L241.21 124.003Z"/>
<path d="M284.7 154.786C279.822 156.09 276.004 155.756 273.246 153.784C270.477 151.774 268.429 148.296 267.102 143.352L262.512 126.255C261.185 121.311 261.227 117.315 262.638 114.268C264.049 111.221 267.193 109.045 272.071 107.74C276.911 106.446 280.71 106.785 283.468 108.757C286.255 110.682 288.306 114.097 289.623 119.004L294.228 136.158C295.545 141.064 295.49 145.084 294.061 148.217C292.66 151.302 289.54 153.491 284.7 154.786ZM282.907 148.105C284.495 147.681 285.412 146.869 285.657 145.671C285.931 144.425 285.814 142.858 285.308 140.971L279.487 119.288C278.98 117.401 278.307 116.023 277.466 115.156C276.653 114.241 275.452 113.996 273.864 114.42C272.276 114.845 271.34 115.662 271.057 116.87C270.801 118.031 270.926 119.555 271.433 121.442L277.254 143.125C277.77 145.05 278.435 146.47 279.248 147.385C280.061 148.3 281.281 148.54 282.907 148.105Z"/>
<path d="M290.893 103.313L302.804 100.127C307.757 98.8024 311.725 98.7121 314.707 99.8562C317.688 101 319.777 103.799 320.973 108.253C321.773 111.235 322.006 113.761 321.67 115.833C321.325 117.867 320.22 119.639 318.356 121.149L330.711 141.812L321.126 144.376L310.33 124.995L306.927 125.905L312.505 146.682L303.203 149.17L290.893 103.313ZM308.217 119.613C310.41 119.027 311.8 118.089 312.386 116.799C312.999 115.462 312.997 113.642 312.379 111.34C311.771 109.076 310.928 107.521 309.851 106.677C308.773 105.832 307.194 105.688 305.114 106.244L301.882 107.109L305.438 120.357L308.217 119.613Z"/>
<path d="M329.002 107.137C330.277 106.755 331.026 106.07 331.246 105.08C331.505 104.081 331.396 102.694 330.92 100.92L327.176 101.921L325.094 94.1655L332.921 92.0721L334.506 98.2015C335.294 101.591 335.405 104.191 334.837 106.001C334.307 107.801 332.856 109.039 330.484 109.714L329.002 107.137Z"/>
<path d="M99.6612 173.966L93.7705 176.382L92.2865 172.777L108.755 166.023L110.239 169.628L104.52 171.974L117.346 203.132L112.487 205.125L99.6612 173.966Z"/>
<path d="M111.682 164.822L116.541 162.83L122.724 177.851L131.668 174.183L125.484 159.162L130.343 157.169L144.653 191.933L139.795 193.926L133.099 177.66L124.155 181.328L130.851 197.594L125.992 199.586L111.682 164.822Z"/>
<path d="M135.183 155.185L139.955 153.227L154.265 187.991L149.493 189.948L135.183 155.185Z"/>
<path d="M167.412 183.051C164.488 184.25 161.881 184.266 159.591 183.098C157.33 181.919 155.465 179.79 153.998 176.714L157.821 173.791C158.883 175.964 160.055 177.591 161.337 178.67C162.647 179.738 164.148 179.925 165.839 179.231C167.101 178.714 167.905 177.983 168.253 177.037C168.618 176.052 168.53 174.901 167.988 173.585C167.399 172.154 166.609 171.09 165.619 170.393C164.628 169.695 163.238 169.045 161.448 168.441L153.48 165.689C151.881 165.141 150.568 164.392 149.54 163.442C148.529 162.452 147.671 161.099 146.964 159.382C145.916 156.836 145.834 154.562 146.719 152.56C147.604 150.558 149.307 149.04 151.83 148.006C154.582 146.877 156.96 146.755 158.966 147.638C160.971 148.521 162.747 150.435 164.294 153.378L160.625 156.187C159.646 154.215 158.603 152.82 157.496 152.003C156.406 151.146 155.03 151.058 153.367 151.74C152.134 152.245 151.324 152.962 150.935 153.891C150.535 154.791 150.594 155.87 151.113 157.129C151.537 158.159 152.068 158.961 152.706 159.535C153.333 160.081 154.209 160.541 155.335 160.915L163.346 163.65C165.418 164.371 167.223 165.337 168.759 166.546C170.324 167.744 171.519 169.344 172.344 171.347C173.392 173.893 173.448 176.228 172.513 178.35C171.577 180.473 169.877 182.04 167.412 183.051Z"/>
<path d="M57.4064 178.584L62.503 177.78L68.3829 214.903L63.2863 215.707L57.4064 178.584Z"/>
<path d="M82.3169 213.126C79.1946 213.619 76.6546 213.033 74.6967 211.369C72.7695 209.701 71.4479 207.2 70.7319 203.868L75.1275 201.906C75.658 204.265 76.422 206.118 77.4196 207.464C78.4477 208.804 79.8648 209.332 81.6708 209.048C83.0177 208.835 83.9697 208.309 84.527 207.469C85.1101 206.594 85.2903 205.454 85.0677 204.049C84.8257 202.521 84.3035 201.304 83.501 200.397C82.6984 199.49 81.4964 198.537 79.8947 197.537L72.7791 193.022C71.3499 192.121 70.2452 191.089 69.4652 189.928C68.711 188.732 68.1887 187.217 67.8983 185.384C67.4676 182.665 67.9143 180.433 69.2383 178.69C70.5623 176.946 72.5711 175.862 75.2648 175.437C78.2034 174.973 80.5461 175.402 82.2928 176.724C84.0395 178.045 85.3248 180.316 86.1487 183.537L81.9296 185.425C81.4329 183.279 80.7406 181.682 79.8527 180.632C78.9905 179.547 77.6718 179.144 75.8964 179.424C74.5801 179.632 73.6256 180.143 73.0329 180.956C72.4353 181.74 72.243 182.804 72.4559 184.148C72.6302 185.248 72.9614 186.151 73.4497 186.857C73.9332 187.532 74.6793 188.182 75.688 188.805L82.8495 193.312C84.6993 194.492 86.2317 195.848 87.4468 197.378C88.6925 198.904 89.4847 200.737 89.8235 202.875C90.2542 205.595 89.7689 207.879 88.3676 209.729C86.9663 211.578 84.9494 212.711 82.3169 213.126Z"/>
<path d="M176.48 71.614L168.964 74.4787L167.205 69.8794L188.214 61.8708L189.974 66.4701L182.678 69.2512L197.887 109.002L191.689 111.365L176.48 71.614Z"/>
<path d="M192.498 60.238L198.696 57.8751L206.028 77.0389L217.438 72.6895L210.106 53.5258L216.305 51.1629L233.273 95.5133L227.075 97.8762L219.135 77.1246L207.725 81.4739L215.665 102.226L209.466 104.588L192.498 60.238Z"/>
<path d="M222.149 48.935L239.374 42.3692L241.133 46.9685L230.107 51.1714L235.722 65.8454L244.663 62.437L246.339 66.8173L237.398 70.2257L243.619 86.4875L254.755 82.2427L256.452 86.6778L239.118 93.2854L222.149 48.935Z"/>
<path d="M355.157 126.143C351.612 126.143 348.953 125.187 347.18 123.274C345.408 121.331 344.442 118.337 344.284 114.294L351.026 113.165C351.089 115.579 351.422 117.366 352.023 118.525C352.656 119.654 353.59 120.218 354.824 120.218C355.742 120.218 356.407 119.936 356.819 119.372C357.23 118.776 357.436 118.024 357.436 117.115C357.436 115.61 357.088 114.341 356.391 113.306C355.727 112.24 354.666 111.081 353.21 109.827L349.222 106.394C347.639 105.078 346.42 103.667 345.566 102.162C344.743 100.658 344.331 98.8553 344.331 96.7551C344.331 93.6517 345.249 91.2694 347.085 89.608C348.953 87.9153 351.517 87.0689 354.777 87.0689C358.259 87.0689 360.68 88.072 362.041 90.0782C363.403 92.0531 364.178 94.5765 364.368 97.6485L357.578 98.6359C357.515 96.6297 357.278 95.1564 356.866 94.216C356.486 93.2442 355.711 92.7584 354.54 92.7584C353.685 92.7584 353.02 93.0875 352.545 93.7458C352.071 94.3727 351.833 95.125 351.833 96.0027C351.833 97.2566 352.102 98.3224 352.64 99.2001C353.21 100.046 354.096 100.987 355.299 102.021L359.193 105.407C361.029 107.005 362.469 108.698 363.513 110.485C364.558 112.24 365.08 114.309 365.08 116.692C365.08 118.51 364.669 120.14 363.846 121.582C363.023 122.992 361.852 124.105 360.332 124.92C358.844 125.735 357.119 126.143 355.157 126.143Z"/>
<path d="M44.7466 106.126L51.493 103.372L64.0737 126.22L57.7253 100.885L63.1126 98.6853L76.459 121.051L69.4509 96.0413L76.1002 93.3268L87.1122 134.623L80.2688 137.417L66.3119 114.113L72.8429 140.448L65.9024 143.282L44.7466 106.126Z"/>
<path d="M80.5704 91.5019L88.5786 88.2327L95.1611 104.314L102.102 101.481L95.5192 85.3993L103.527 82.1301L119.587 121.366L111.579 124.635L104.461 107.245L97.5205 110.079L104.638 127.468L96.63 130.738L80.5704 91.5019Z"/>
<path d="M115.207 77.3622L124.088 73.7363L147.72 109.881L140.342 112.893L135.357 104.865L129.145 107.401L131.169 116.638L123.646 119.709L115.207 77.3622ZM132.558 100.241L123.716 85.421L127.85 102.163L132.558 100.241Z"/>
<path d="M139.761 74.2354L133.694 76.7121L131.275 70.8025L151.369 62.5996L153.787 68.5092L147.818 70.9463L161.458 104.272L153.402 107.562L139.761 74.2354Z"/>
</mask>
<path d="M338.163 225.356C344.343 221.457 349.426 216.881 353.413 211.629C357.479 206.384 359.812 200.803 360.411 194.884C360.978 189.286 359.154 186.273 354.939 185.846C353.03 185.653 351.462 186.06 350.235 187.067C349.088 188.082 348.413 189.589 348.211 191.589C348.017 193.508 348.271 195.756 348.974 198.332L331.025 200.635C330.07 196.579 329.774 192.752 330.139 189.153C330.852 182.115 333.554 176.853 338.245 173.369C342.945 169.805 349.231 168.421 357.104 169.219C365.057 170.024 371.006 172.767 374.951 177.449C378.896 182.131 380.472 188.391 379.678 196.229C378.957 203.348 376.535 209.809 372.413 215.613C368.29 221.417 362.633 226.501 355.442 230.863L354.252 242.62L336.596 240.832L338.163 225.356ZM335.295 247.73L354.263 249.651L352.38 268.246L333.412 266.326L335.295 247.73Z" fill="#F4CB6D"/>
<path d="M302.204 249.22C305.373 244.887 307.61 240.388 308.915 235.723C310.277 231.042 310.363 226.598 309.174 222.393C308.049 218.415 305.99 216.849 302.995 217.696C301.638 218.079 300.677 218.781 300.111 219.8C299.601 220.803 299.547 222.015 299.949 223.436C300.335 224.8 301.115 226.267 302.292 227.837L290.651 234.258C288.903 231.745 287.667 229.21 286.944 226.653C285.53 221.651 285.955 217.327 288.22 213.68C290.468 209.976 294.389 207.333 299.984 205.751C305.635 204.153 310.44 204.421 314.399 206.554C318.359 208.688 321.126 212.539 322.701 218.108C324.131 223.166 324.221 228.235 322.972 233.314C321.723 238.393 319.231 243.393 315.496 248.316L317.858 256.67L305.313 260.216L302.204 249.22ZM306.287 265.281L319.764 261.47L323.5 274.683L310.023 278.494L306.287 265.281Z" fill="#F4CB6D"/>
<path d="M260.927 227.474C264.275 224.616 266.911 221.449 268.835 217.973C270.807 214.495 271.716 210.966 271.563 207.385C271.418 203.998 270.07 202.359 267.52 202.469C266.365 202.518 265.466 202.896 264.821 203.602C264.225 204.306 263.952 205.263 264.004 206.473C264.054 207.634 264.4 208.953 265.041 210.428L254.538 213.35C253.618 211.014 253.112 208.757 253.019 206.58C252.836 202.322 253.993 198.952 256.49 196.469C258.985 193.939 262.613 192.571 267.377 192.367C272.188 192.161 275.972 193.284 278.728 195.735C281.484 198.186 282.964 201.783 283.167 206.525C283.351 210.831 282.465 214.893 280.507 218.709C278.55 222.526 275.616 226.045 271.705 229.266L272.009 236.379L261.328 236.837L260.927 227.474ZM261.148 241.062L272.623 240.57L273.105 251.82L261.629 252.312L261.148 241.062Z" fill="#F4CB6D"/>
<path d="M87.906 223.574L96.1804 222.681L109.864 247.072L107.081 221.505L116.801 220.456L122.58 273.558L114.634 274.415L100.736 248.057L103.733 275.592L93.6852 276.676L87.906 223.574Z" fill="#F4CB6D"/>
<path d="M130.89 218.936L144.286 217.49L159.982 269.522L149.146 270.691L146.153 259.672L138.338 260.516L137.72 271.924L126.622 273.122L130.89 218.936ZM144.273 252.778L139.195 232.367L138.626 253.387L144.273 252.778Z" fill="#F4CB6D"/>
<path d="M159.639 215.834L172.247 214.473L181.452 244.721L184.396 213.163L196.545 211.852L203.243 264.854L194.903 265.754L190.073 230.525L187.745 266.527L180.325 267.327L169.884 232.438L172.97 268.121L164.498 269.035L159.639 215.834Z" fill="#F4CB6D"/>
<path d="M202.527 211.206L226.431 208.627L227.302 216.625L215.153 217.936L216.587 231.113L225.846 230.114L226.731 238.243L217.471 239.242L219.198 255.107L231.478 253.782L232.342 261.715L208.307 264.308L202.527 211.206Z" fill="#F4CB6D"/>
<path d="M255.429 37.6706L265.373 35.0112L270.734 54.9816L279.351 52.6767L273.99 32.7064L283.934 30.047L297.013 78.7699L287.07 81.4293L281.273 59.8348L272.655 62.1396L278.452 83.7341L268.509 86.3935L255.429 37.6706Z" fill="#F4CB6D"/>
<path d="M290.179 28.3766L311.452 22.6871L313.293 29.5444L301.903 32.5906L305.375 45.5233L314.173 43.1701L316.03 50.0876L307.232 52.4407L311.333 67.7193L322.843 64.6408L324.652 71.3778L303.258 77.0996L290.179 28.3766Z" fill="#F4CB6D"/>
<path d="M316.059 21.4549L325.942 18.8116L337.213 60.7975L348.723 57.7191L350.532 64.4561L329.139 70.1778L316.059 21.4549Z" fill="#F4CB6D"/>
<path d="M341.527 14.6433L351.41 12L362.681 53.9859L374.192 50.9075L376 57.6445L354.607 63.3662L341.527 14.6433Z" fill="#F4CB6D"/>
<path d="M181.514 132.567L191.893 129.791L213.051 173.281L204.43 175.587L200.023 165.965L192.763 167.907L193.71 178.454L184.919 180.805L181.514 132.567ZM197.566 160.433L189.832 142.72L192.064 161.904L197.566 160.433Z" fill="#F4CB6D"/>
<path d="M228.934 169.701C224.056 171.005 220.247 170.628 217.506 168.57C214.755 166.475 212.716 162.954 211.389 158.01L206.981 141.592C205.624 136.535 205.602 132.455 206.918 129.352C208.26 126.202 211.389 123.97 216.305 122.655C220.994 121.401 224.611 121.667 227.158 123.454C229.732 125.192 231.591 128.194 232.736 132.459L233.77 136.309L224.695 138.736L223.555 134.49C223.19 133.131 222.821 132.057 222.447 131.267C222.11 130.467 221.588 129.879 220.879 129.502C220.197 129.077 219.289 129.017 218.155 129.32C216.453 129.775 215.504 130.616 215.306 131.842C215.108 133.068 215.293 134.738 215.861 136.851L221.453 157.685C222.031 159.836 222.745 161.364 223.596 162.269C224.447 163.174 225.647 163.42 227.198 163.005C228.786 162.58 229.665 161.779 229.835 160.601C229.995 159.385 229.791 157.72 229.224 155.607L228.023 151.134L237.098 148.707L238.116 152.5C239.291 156.878 239.239 160.533 237.959 163.464C236.669 166.358 233.661 168.437 228.934 169.701Z" fill="#F4CB6D"/>
<path d="M241.21 124.003L234.12 125.9L232.266 118.993L255.748 112.713L257.602 119.619L250.625 121.485L261.081 160.435L251.666 162.953L241.21 124.003Z" fill="#F4CB6D"/>
<path d="M284.7 154.786C279.822 156.09 276.004 155.756 273.246 153.784C270.477 151.774 268.429 148.296 267.102 143.352L262.512 126.255C261.185 121.311 261.227 117.315 262.638 114.268C264.049 111.221 267.193 109.045 272.071 107.74C276.911 106.446 280.71 106.785 283.468 108.757C286.255 110.682 288.306 114.097 289.623 119.004L294.228 136.158C295.545 141.064 295.49 145.084 294.061 148.217C292.66 151.302 289.54 153.491 284.7 154.786ZM282.907 148.105C284.495 147.681 285.412 146.869 285.657 145.671C285.931 144.425 285.814 142.858 285.308 140.971L279.487 119.288C278.98 117.401 278.307 116.023 277.466 115.156C276.653 114.241 275.452 113.996 273.864 114.42C272.276 114.845 271.34 115.662 271.057 116.87C270.801 118.031 270.926 119.555 271.433 121.442L277.254 143.125C277.77 145.05 278.435 146.47 279.248 147.385C280.061 148.3 281.281 148.54 282.907 148.105Z" fill="#F4CB6D"/>
<path d="M290.893 103.313L302.804 100.127C307.757 98.8024 311.725 98.7121 314.707 99.8562C317.688 101 319.777 103.799 320.973 108.253C321.773 111.235 322.006 113.761 321.67 115.833C321.325 117.867 320.22 119.639 318.356 121.149L330.711 141.812L321.126 144.376L310.33 124.995L306.927 125.905L312.505 146.682L303.203 149.17L290.893 103.313ZM308.217 119.613C310.41 119.027 311.8 118.089 312.386 116.799C312.999 115.462 312.997 113.642 312.379 111.34C311.771 109.076 310.928 107.521 309.851 106.677C308.773 105.832 307.194 105.688 305.114 106.244L301.882 107.109L305.438 120.357L308.217 119.613Z" fill="#F4CB6D"/>
<path d="M329.002 107.137C330.277 106.755 331.026 106.07 331.246 105.08C331.505 104.081 331.396 102.694 330.92 100.92L327.176 101.921L325.094 94.1655L332.921 92.0721L334.506 98.2015C335.294 101.591 335.405 104.191 334.837 106.001C334.307 107.801 332.856 109.039 330.484 109.714L329.002 107.137Z" fill="#F4CB6D"/>
<path d="M99.6612 173.966L93.7705 176.382L92.2865 172.777L108.755 166.023L110.239 169.628L104.52 171.974L117.346 203.132L112.487 205.125L99.6612 173.966Z" fill="#F4CB6D"/>
<path d="M111.682 164.822L116.541 162.83L122.724 177.851L131.668 174.183L125.484 159.162L130.343 157.169L144.653 191.933L139.795 193.926L133.099 177.66L124.155 181.328L130.851 197.594L125.992 199.586L111.682 164.822Z" fill="#F4CB6D"/>
<path d="M135.183 155.185L139.955 153.227L154.265 187.991L149.493 189.948L135.183 155.185Z" fill="#F4CB6D"/>
<path d="M167.412 183.051C164.488 184.25 161.881 184.266 159.591 183.098C157.33 181.919 155.465 179.79 153.998 176.714L157.821 173.791C158.883 175.964 160.055 177.591 161.337 178.67C162.647 179.738 164.148 179.925 165.839 179.231C167.101 178.714 167.905 177.983 168.253 177.037C168.618 176.052 168.53 174.901 167.988 173.585C167.399 172.154 166.609 171.09 165.619 170.393C164.628 169.695 163.238 169.045 161.448 168.441L153.48 165.689C151.881 165.141 150.568 164.392 149.54 163.442C148.529 162.452 147.671 161.099 146.964 159.382C145.916 156.836 145.834 154.562 146.719 152.56C147.604 150.558 149.307 149.04 151.83 148.006C154.582 146.877 156.96 146.755 158.966 147.638C160.971 148.521 162.747 150.435 164.294 153.378L160.625 156.187C159.646 154.215 158.603 152.82 157.496 152.003C156.406 151.146 155.03 151.058 153.367 151.74C152.134 152.245 151.324 152.962 150.935 153.891C150.535 154.791 150.594 155.87 151.113 157.129C151.537 158.159 152.068 158.961 152.706 159.535C153.333 160.081 154.209 160.541 155.335 160.915L163.346 163.65C165.418 164.371 167.223 165.337 168.759 166.546C170.324 167.744 171.519 169.344 172.344 171.347C173.392 173.893 173.448 176.228 172.513 178.35C171.577 180.473 169.877 182.04 167.412 183.051Z" fill="#F4CB6D"/>
<path d="M57.4064 178.584L62.503 177.78L68.3829 214.903L63.2863 215.707L57.4064 178.584Z" fill="#F4CB6D"/>
<path d="M82.3169 213.126C79.1946 213.619 76.6546 213.033 74.6967 211.369C72.7695 209.701 71.4479 207.2 70.7319 203.868L75.1275 201.906C75.658 204.265 76.422 206.118 77.4196 207.464C78.4477 208.804 79.8648 209.332 81.6708 209.048C83.0177 208.835 83.9697 208.309 84.527 207.469C85.1101 206.594 85.2903 205.454 85.0677 204.049C84.8257 202.521 84.3035 201.304 83.501 200.397C82.6984 199.49 81.4964 198.537 79.8947 197.537L72.7791 193.022C71.3499 192.121 70.2452 191.089 69.4652 189.928C68.711 188.732 68.1887 187.217 67.8983 185.384C67.4676 182.665 67.9143 180.433 69.2383 178.69C70.5623 176.946 72.5711 175.862 75.2648 175.437C78.2034 174.973 80.5461 175.402 82.2928 176.724C84.0395 178.045 85.3248 180.316 86.1487 183.537L81.9296 185.425C81.4329 183.279 80.7406 181.682 79.8527 180.632C78.9905 179.547 77.6718 179.144 75.8964 179.424C74.5801 179.632 73.6256 180.143 73.0329 180.956C72.4353 181.74 72.243 182.804 72.4559 184.148C72.6302 185.248 72.9614 186.151 73.4497 186.857C73.9332 187.532 74.6793 188.182 75.688 188.805L82.8495 193.312C84.6993 194.492 86.2317 195.848 87.4468 197.378C88.6925 198.904 89.4847 200.737 89.8235 202.875C90.2542 205.595 89.7689 207.879 88.3676 209.729C86.9663 211.578 84.9494 212.711 82.3169 213.126Z" fill="#F4CB6D"/>
<path d="M176.48 71.614L168.964 74.4787L167.205 69.8794L188.214 61.8708L189.974 66.4701L182.678 69.2512L197.887 109.002L191.689 111.365L176.48 71.614Z" fill="#F4CB6D"/>
<path d="M192.498 60.238L198.696 57.8751L206.028 77.0389L217.438 72.6895L210.106 53.5258L216.305 51.1629L233.273 95.5133L227.075 97.8762L219.135 77.1246L207.725 81.4739L215.665 102.226L209.466 104.588L192.498 60.238Z" fill="#F4CB6D"/>
<path d="M222.149 48.935L239.374 42.3692L241.133 46.9685L230.107 51.1714L235.722 65.8454L244.663 62.437L246.339 66.8173L237.398 70.2257L243.619 86.4875L254.755 82.2427L256.452 86.6778L239.118 93.2854L222.149 48.935Z" fill="#F4CB6D"/>
<path d="M355.157 126.143C351.612 126.143 348.953 125.187 347.18 123.274C345.408 121.331 344.442 118.337 344.284 114.294L351.026 113.165C351.089 115.579 351.422 117.366 352.023 118.525C352.656 119.654 353.59 120.218 354.824 120.218C355.742 120.218 356.407 119.936 356.819 119.372C357.23 118.776 357.436 118.024 357.436 117.115C357.436 115.61 357.088 114.341 356.391 113.306C355.727 112.24 354.666 111.081 353.21 109.827L349.222 106.394C347.639 105.078 346.42 103.667 345.566 102.162C344.743 100.658 344.331 98.8553 344.331 96.7551C344.331 93.6517 345.249 91.2694 347.085 89.608C348.953 87.9153 351.517 87.0689 354.777 87.0689C358.259 87.0689 360.68 88.072 362.041 90.0782C363.403 92.0531 364.178 94.5765 364.368 97.6485L357.578 98.6359C357.515 96.6297 357.278 95.1564 356.866 94.216C356.486 93.2442 355.711 92.7584 354.54 92.7584C353.685 92.7584 353.02 93.0875 352.545 93.7458C352.071 94.3727 351.833 95.125 351.833 96.0027C351.833 97.2566 352.102 98.3224 352.64 99.2001C353.21 100.046 354.096 100.987 355.299 102.021L359.193 105.407C361.029 107.005 362.469 108.698 363.513 110.485C364.558 112.24 365.08 114.309 365.08 116.692C365.08 118.51 364.669 120.14 363.846 121.582C363.023 122.992 361.852 124.105 360.332 124.92C358.844 125.735 357.119 126.143 355.157 126.143Z" fill="#F4CB6D"/>
<path d="M44.7466 106.126L51.493 103.372L64.0737 126.22L57.7253 100.885L63.1126 98.6853L76.459 121.051L69.4509 96.0413L76.1002 93.3268L87.1122 134.623L80.2688 137.417L66.3119 114.113L72.8429 140.448L65.9024 143.282L44.7466 106.126Z" fill="#F4CB6D"/>
<path d="M80.5704 91.5019L88.5786 88.2327L95.1611 104.314L102.102 101.481L95.5192 85.3993L103.527 82.1301L119.587 121.366L111.579 124.635L104.461 107.245L97.5205 110.079L104.638 127.468L96.63 130.738L80.5704 91.5019Z" fill="#F4CB6D"/>
<path d="M115.207 77.3622L124.088 73.7363L147.72 109.881L140.342 112.893L135.357 104.865L129.145 107.401L131.169 116.638L123.646 119.709L115.207 77.3622ZM132.558 100.241L123.716 85.421L127.85 102.163L132.558 100.241Z" fill="#F4CB6D"/>
<path d="M139.761 74.2354L133.694 76.7121L131.275 70.8025L151.369 62.5996L153.787 68.5092L147.818 70.9463L161.458 104.272L153.402 107.562L139.761 74.2354Z" fill="#F4CB6D"/>
<path d="M338.163 225.356C344.343 221.457 349.426 216.881 353.413 211.629C357.479 206.384 359.812 200.803 360.411 194.884C360.978 189.286 359.154 186.273 354.939 185.846C353.03 185.653 351.462 186.06 350.235 187.067C349.088 188.082 348.413 189.589 348.211 191.589C348.017 193.508 348.271 195.756 348.974 198.332L331.025 200.635C330.07 196.579 329.774 192.752 330.139 189.153C330.852 182.115 333.554 176.853 338.245 173.369C342.945 169.805 349.231 168.421 357.104 169.219C365.057 170.024 371.006 172.767 374.951 177.449C378.896 182.131 380.472 188.391 379.678 196.229C378.957 203.348 376.535 209.809 372.413 215.613C368.29 221.417 362.633 226.501 355.442 230.863L354.252 242.62L336.596 240.832L338.163 225.356ZM335.295 247.73L354.263 249.651L352.38 268.246L333.412 266.326L335.295 247.73Z" stroke="url(#paint0_linear)" stroke-width="6" mask="url(#path-1-outside-1)"/>
<path d="M302.204 249.22C305.373 244.887 307.61 240.388 308.915 235.723C310.277 231.042 310.363 226.598 309.174 222.393C308.049 218.415 305.99 216.849 302.995 217.696C301.638 218.079 300.677 218.781 300.111 219.8C299.601 220.803 299.547 222.015 299.949 223.436C300.335 224.8 301.115 226.267 302.292 227.837L290.651 234.258C288.903 231.745 287.667 229.21 286.944 226.653C285.53 221.651 285.955 217.327 288.22 213.68C290.468 209.976 294.389 207.333 299.984 205.751C305.635 204.153 310.44 204.421 314.399 206.554C318.359 208.688 321.126 212.539 322.701 218.108C324.131 223.166 324.221 228.235 322.972 233.314C321.723 238.393 319.231 243.393 315.496 248.316L317.858 256.67L305.313 260.216L302.204 249.22ZM306.287 265.281L319.764 261.47L323.5 274.683L310.023 278.494L306.287 265.281Z" stroke="url(#paint1_linear)" stroke-width="6" mask="url(#path-1-outside-1)"/>
<path d="M260.927 227.474C264.275 224.616 266.911 221.449 268.835 217.973C270.807 214.495 271.716 210.966 271.563 207.385C271.418 203.998 270.07 202.359 267.52 202.469C266.365 202.518 265.466 202.896 264.821 203.602C264.225 204.306 263.952 205.263 264.004 206.473C264.054 207.634 264.4 208.953 265.041 210.428L254.538 213.35C253.618 211.014 253.112 208.757 253.019 206.58C252.836 202.322 253.993 198.952 256.49 196.469C258.985 193.939 262.613 192.571 267.377 192.367C272.188 192.161 275.972 193.284 278.728 195.735C281.484 198.186 282.964 201.783 283.167 206.525C283.351 210.831 282.465 214.893 280.507 218.709C278.55 222.526 275.616 226.045 271.705 229.266L272.009 236.379L261.328 236.837L260.927 227.474ZM261.148 241.062L272.623 240.57L273.105 251.82L261.629 252.312L261.148 241.062Z" stroke="url(#paint2_linear)" stroke-width="6" mask="url(#path-1-outside-1)"/>
<path d="M87.906 223.574L96.1804 222.681L109.864 247.072L107.081 221.505L116.801 220.456L122.58 273.558L114.634 274.415L100.736 248.057L103.733 275.592L93.6852 276.676L87.906 223.574Z" stroke="url(#paint3_linear)" stroke-width="6" mask="url(#path-1-outside-1)"/>
<path d="M130.89 218.936L144.286 217.49L159.982 269.522L149.146 270.691L146.153 259.672L138.338 260.516L137.72 271.924L126.622 273.122L130.89 218.936ZM144.273 252.778L139.195 232.367L138.626 253.387L144.273 252.778Z" stroke="url(#paint4_linear)" stroke-width="6" mask="url(#path-1-outside-1)"/>
<path d="M159.639 215.834L172.247 214.473L181.452 244.721L184.396 213.163L196.545 211.852L203.243 264.854L194.903 265.754L190.073 230.525L187.745 266.527L180.325 267.327L169.884 232.438L172.97 268.121L164.498 269.035L159.639 215.834Z" stroke="url(#paint5_linear)" stroke-width="6" mask="url(#path-1-outside-1)"/>
<path d="M202.527 211.206L226.431 208.627L227.302 216.625L215.153 217.936L216.587 231.113L225.846 230.114L226.731 238.243L217.471 239.242L219.198 255.107L231.478 253.782L232.342 261.715L208.307 264.308L202.527 211.206Z" stroke="url(#paint6_linear)" stroke-width="6" mask="url(#path-1-outside-1)"/>
<path d="M255.429 37.6706L265.373 35.0112L270.734 54.9816L279.351 52.6767L273.99 32.7064L283.934 30.047L297.013 78.7699L287.07 81.4293L281.273 59.8348L272.655 62.1396L278.452 83.7341L268.509 86.3935L255.429 37.6706Z" stroke="url(#paint7_linear)" stroke-width="6" mask="url(#path-1-outside-1)"/>
<path d="M290.179 28.3766L311.452 22.6871L313.293 29.5444L301.903 32.5906L305.375 45.5233L314.173 43.1701L316.03 50.0876L307.232 52.4407L311.333 67.7193L322.843 64.6408L324.652 71.3778L303.258 77.0996L290.179 28.3766Z" stroke="url(#paint8_linear)" stroke-width="6" mask="url(#path-1-outside-1)"/>
<path d="M316.059 21.4549L325.942 18.8116L337.213 60.7975L348.723 57.7191L350.532 64.4561L329.139 70.1778L316.059 21.4549Z" stroke="url(#paint9_linear)" stroke-width="6" mask="url(#path-1-outside-1)"/>
<path d="M341.527 14.6433L351.41 12L362.681 53.9859L374.192 50.9075L376 57.6445L354.607 63.3662L341.527 14.6433Z" stroke="url(#paint10_linear)" stroke-width="6" mask="url(#path-1-outside-1)"/>
<path d="M181.514 132.567L191.893 129.791L213.051 173.281L204.43 175.587L200.023 165.965L192.763 167.907L193.71 178.454L184.919 180.805L181.514 132.567ZM197.566 160.433L189.832 142.72L192.064 161.904L197.566 160.433Z" stroke="url(#paint11_linear)" stroke-width="6" mask="url(#path-1-outside-1)"/>
<path d="M228.934 169.701C224.056 171.005 220.247 170.628 217.506 168.57C214.755 166.475 212.716 162.954 211.389 158.01L206.981 141.592C205.624 136.535 205.602 132.455 206.918 129.352C208.26 126.202 211.389 123.97 216.305 122.655C220.994 121.401 224.611 121.667 227.158 123.454C229.732 125.192 231.591 128.194 232.736 132.459L233.77 136.309L224.695 138.736L223.555 134.49C223.19 133.131 222.821 132.057 222.447 131.267C222.11 130.467 221.588 129.879 220.879 129.502C220.197 129.077 219.289 129.017 218.155 129.32C216.453 129.775 215.504 130.616 215.306 131.842C215.108 133.068 215.293 134.738 215.861 136.851L221.453 157.685C222.031 159.836 222.745 161.364 223.596 162.269C224.447 163.174 225.647 163.42 227.198 163.005C228.786 162.58 229.665 161.779 229.835 160.601C229.995 159.385 229.791 157.72 229.224 155.607L228.023 151.134L237.098 148.707L238.116 152.5C239.291 156.878 239.239 160.533 237.959 163.464C236.669 166.358 233.661 168.437 228.934 169.701Z" stroke="url(#paint12_linear)" stroke-width="6" mask="url(#path-1-outside-1)"/>
<path d="M241.21 124.003L234.12 125.9L232.266 118.993L255.748 112.713L257.602 119.619L250.625 121.485L261.081 160.435L251.666 162.953L241.21 124.003Z" stroke="url(#paint13_linear)" stroke-width="6" mask="url(#path-1-outside-1)"/>
<path d="M284.7 154.786C279.822 156.09 276.004 155.756 273.246 153.784C270.477 151.774 268.429 148.296 267.102 143.352L262.512 126.255C261.185 121.311 261.227 117.315 262.638 114.268C264.049 111.221 267.193 109.045 272.071 107.74C276.911 106.446 280.71 106.785 283.468 108.757C286.255 110.682 288.306 114.097 289.623 119.004L294.228 136.158C295.545 141.064 295.49 145.084 294.061 148.217C292.66 151.302 289.54 153.491 284.7 154.786ZM282.907 148.105C284.495 147.681 285.412 146.869 285.657 145.671C285.931 144.425 285.814 142.858 285.308 140.971L279.487 119.288C278.98 117.401 278.307 116.023 277.466 115.156C276.653 114.241 275.452 113.996 273.864 114.42C272.276 114.845 271.34 115.662 271.057 116.87C270.801 118.031 270.926 119.555 271.433 121.442L277.254 143.125C277.77 145.05 278.435 146.47 279.248 147.385C280.061 148.3 281.281 148.54 282.907 148.105Z" stroke="url(#paint14_linear)" stroke-width="6" mask="url(#path-1-outside-1)"/>
<path d="M290.893 103.313L302.804 100.127C307.757 98.8024 311.725 98.7121 314.707 99.8562C317.688 101 319.777 103.799 320.973 108.253C321.773 111.235 322.006 113.761 321.67 115.833C321.325 117.867 320.22 119.639 318.356 121.149L330.711 141.812L321.126 144.376L310.33 124.995L306.927 125.905L312.505 146.682L303.203 149.17L290.893 103.313ZM308.217 119.613C310.41 119.027 311.8 118.089 312.386 116.799C312.999 115.462 312.997 113.642 312.379 111.34C311.771 109.076 310.928 107.521 309.851 106.677C308.773 105.832 307.194 105.688 305.114 106.244L301.882 107.109L305.438 120.357L308.217 119.613Z" stroke="url(#paint15_linear)" stroke-width="6" mask="url(#path-1-outside-1)"/>
<path d="M329.002 107.137C330.277 106.755 331.026 106.07 331.246 105.08C331.505 104.081 331.396 102.694 330.92 100.92L327.176 101.921L325.094 94.1655L332.921 92.0721L334.506 98.2015C335.294 101.591 335.405 104.191 334.837 106.001C334.307 107.801 332.856 109.039 330.484 109.714L329.002 107.137Z" stroke="url(#paint16_linear)" stroke-width="6" mask="url(#path-1-outside-1)"/>
<path d="M99.6612 173.966L93.7705 176.382L92.2865 172.777L108.755 166.023L110.239 169.628L104.52 171.974L117.346 203.132L112.487 205.125L99.6612 173.966Z" stroke="url(#paint17_linear)" stroke-width="6" mask="url(#path-1-outside-1)"/>
<path d="M111.682 164.822L116.541 162.83L122.724 177.851L131.668 174.183L125.484 159.162L130.343 157.169L144.653 191.933L139.795 193.926L133.099 177.66L124.155 181.328L130.851 197.594L125.992 199.586L111.682 164.822Z" stroke="url(#paint18_linear)" stroke-width="6" mask="url(#path-1-outside-1)"/>
<path d="M135.183 155.185L139.955 153.227L154.265 187.991L149.493 189.948L135.183 155.185Z" stroke="url(#paint19_linear)" stroke-width="6" mask="url(#path-1-outside-1)"/>
<path d="M167.412 183.051C164.488 184.25 161.881 184.266 159.591 183.098C157.33 181.919 155.465 179.79 153.998 176.714L157.821 173.791C158.883 175.964 160.055 177.591 161.337 178.67C162.647 179.738 164.148 179.925 165.839 179.231C167.101 178.714 167.905 177.983 168.253 177.037C168.618 176.052 168.53 174.901 167.988 173.585C167.399 172.154 166.609 171.09 165.619 170.393C164.628 169.695 163.238 169.045 161.448 168.441L153.48 165.689C151.881 165.141 150.568 164.392 149.54 163.442C148.529 162.452 147.671 161.099 146.964 159.382C145.916 156.836 145.834 154.562 146.719 152.56C147.604 150.558 149.307 149.04 151.83 148.006C154.582 146.877 156.96 146.755 158.966 147.638C160.971 148.521 162.747 150.435 164.294 153.378L160.625 156.187C159.646 154.215 158.603 152.82 157.496 152.003C156.406 151.146 155.03 151.058 153.367 151.74C152.134 152.245 151.324 152.962 150.935 153.891C150.535 154.791 150.594 155.87 151.113 157.129C151.537 158.159 152.068 158.961 152.706 159.535C153.333 160.081 154.209 160.541 155.335 160.915L163.346 163.65C165.418 164.371 167.223 165.337 168.759 166.546C170.324 167.744 171.519 169.344 172.344 171.347C173.392 173.893 173.448 176.228 172.513 178.35C171.577 180.473 169.877 182.04 167.412 183.051Z" stroke="url(#paint20_linear)" stroke-width="6" mask="url(#path-1-outside-1)"/>
<path d="M57.4064 178.584L62.503 177.78L68.3829 214.903L63.2863 215.707L57.4064 178.584Z" stroke="url(#paint21_linear)" stroke-width="6" mask="url(#path-1-outside-1)"/>
<path d="M82.3169 213.126C79.1946 213.619 76.6546 213.033 74.6967 211.369C72.7695 209.701 71.4479 207.2 70.7319 203.868L75.1275 201.906C75.658 204.265 76.422 206.118 77.4196 207.464C78.4477 208.804 79.8648 209.332 81.6708 209.048C83.0177 208.835 83.9697 208.309 84.527 207.469C85.1101 206.594 85.2903 205.454 85.0677 204.049C84.8257 202.521 84.3035 201.304 83.501 200.397C82.6984 199.49 81.4964 198.537 79.8947 197.537L72.7791 193.022C71.3499 192.121 70.2452 191.089 69.4652 189.928C68.711 188.732 68.1887 187.217 67.8983 185.384C67.4676 182.665 67.9143 180.433 69.2383 178.69C70.5623 176.946 72.5711 175.862 75.2648 175.437C78.2034 174.973 80.5461 175.402 82.2928 176.724C84.0395 178.045 85.3248 180.316 86.1487 183.537L81.9296 185.425C81.4329 183.279 80.7406 181.682 79.8527 180.632C78.9905 179.547 77.6718 179.144 75.8964 179.424C74.5801 179.632 73.6256 180.143 73.0329 180.956C72.4353 181.74 72.243 182.804 72.4559 184.148C72.6302 185.248 72.9614 186.151 73.4497 186.857C73.9332 187.532 74.6793 188.182 75.688 188.805L82.8495 193.312C84.6993 194.492 86.2317 195.848 87.4468 197.378C88.6925 198.904 89.4847 200.737 89.8235 202.875C90.2542 205.595 89.7689 207.879 88.3676 209.729C86.9663 211.578 84.9494 212.711 82.3169 213.126Z" stroke="url(#paint22_linear)" stroke-width="6" mask="url(#path-1-outside-1)"/>
<path d="M176.48 71.614L168.964 74.4787L167.205 69.8794L188.214 61.8708L189.974 66.4701L182.678 69.2512L197.887 109.002L191.689 111.365L176.48 71.614Z" stroke="url(#paint23_linear)" stroke-width="6" mask="url(#path-1-outside-1)"/>
<path d="M192.498 60.238L198.696 57.8751L206.028 77.0389L217.438 72.6895L210.106 53.5258L216.305 51.1629L233.273 95.5133L227.075 97.8762L219.135 77.1246L207.725 81.4739L215.665 102.226L209.466 104.588L192.498 60.238Z" stroke="url(#paint24_linear)" stroke-width="6" mask="url(#path-1-outside-1)"/>
<path d="M222.149 48.935L239.374 42.3692L241.133 46.9685L230.107 51.1714L235.722 65.8454L244.663 62.437L246.339 66.8173L237.398 70.2257L243.619 86.4875L254.755 82.2427L256.452 86.6778L239.118 93.2854L222.149 48.935Z" stroke="url(#paint25_linear)" stroke-width="6" mask="url(#path-1-outside-1)"/>
<path d="M355.157 126.143C351.612 126.143 348.953 125.187 347.18 123.274C345.408 121.331 344.442 118.337 344.284 114.294L351.026 113.165C351.089 115.579 351.422 117.366 352.023 118.525C352.656 119.654 353.59 120.218 354.824 120.218C355.742 120.218 356.407 119.936 356.819 119.372C357.23 118.776 357.436 118.024 357.436 117.115C357.436 115.61 357.088 114.341 356.391 113.306C355.727 112.24 354.666 111.081 353.21 109.827L349.222 106.394C347.639 105.078 346.42 103.667 345.566 102.162C344.743 100.658 344.331 98.8553 344.331 96.7551C344.331 93.6517 345.249 91.2694 347.085 89.608C348.953 87.9153 351.517 87.0689 354.777 87.0689C358.259 87.0689 360.68 88.072 362.041 90.0782C363.403 92.0531 364.178 94.5765 364.368 97.6485L357.578 98.6359C357.515 96.6297 357.278 95.1564 356.866 94.216C356.486 93.2442 355.711 92.7584 354.54 92.7584C353.685 92.7584 353.02 93.0875 352.545 93.7458C352.071 94.3727 351.833 95.125 351.833 96.0027C351.833 97.2566 352.102 98.3224 352.64 99.2001C353.21 100.046 354.096 100.987 355.299 102.021L359.193 105.407C361.029 107.005 362.469 108.698 363.513 110.485C364.558 112.24 365.08 114.309 365.08 116.692C365.08 118.51 364.669 120.14 363.846 121.582C363.023 122.992 361.852 124.105 360.332 124.92C358.844 125.735 357.119 126.143 355.157 126.143Z" stroke="url(#paint26_linear)" stroke-width="6" mask="url(#path-1-outside-1)"/>
<path d="M44.7466 106.126L51.493 103.372L64.0737 126.22L57.7253 100.885L63.1126 98.6853L76.459 121.051L69.4509 96.0413L76.1002 93.3268L87.1122 134.623L80.2688 137.417L66.3119 114.113L72.8429 140.448L65.9024 143.282L44.7466 106.126Z" stroke="url(#paint27_linear)" stroke-width="6" mask="url(#path-1-outside-1)"/>
<path d="M80.5704 91.5019L88.5786 88.2327L95.1611 104.314L102.102 101.481L95.5192 85.3993L103.527 82.1301L119.587 121.366L111.579 124.635L104.461 107.245L97.5205 110.079L104.638 127.468L96.63 130.738L80.5704 91.5019Z" stroke="url(#paint28_linear)" stroke-width="6" mask="url(#path-1-outside-1)"/>
<path d="M115.207 77.3622L124.088 73.7363L147.72 109.881L140.342 112.893L135.357 104.865L129.145 107.401L131.169 116.638L123.646 119.709L115.207 77.3622ZM132.558 100.241L123.716 85.421L127.85 102.163L132.558 100.241Z" stroke="url(#paint29_linear)" stroke-width="6" mask="url(#path-1-outside-1)"/>
<path d="M139.761 74.2354L133.694 76.7121L131.275 70.8025L151.369 62.5996L153.787 68.5092L147.818 70.9463L161.458 104.272L153.402 107.562L139.761 74.2354Z" stroke="url(#paint30_linear)" stroke-width="6" mask="url(#path-1-outside-1)"/>
</g>
<defs>
<filter id="filter0_dd" x="34.4484" y="6.32745" width="354.428" height="285.869" filterUnits="userSpaceOnUse" color-interpolation-filters="sRGB">
<feFlood flood-opacity="0" result="BackgroundImageFix"/>
<feColorMatrix in="SourceAlpha" type="matrix" values="0 0 0 0 0 0 0 0 0 0 0 0 0 0 0 0 0 0 127 0"/>
<feOffset dy="4"/>
<feGaussianBlur stdDeviation="3"/>
<feColorMatrix type="matrix" values="0 0 0 0 0 0 0 0 0 0 0 0 0 0 0 0 0 0 0.1 0"/>
<feBlend mode="normal" in2="BackgroundImageFix" result="effect1_dropShadow"/>
<feColorMatrix in="SourceAlpha" type="matrix" values="0 0 0 0 0 0 0 0 0 0 0 0 0 0 0 0 0 0 127 0"/>
<feOffset dy="2"/>
<feGaussianBlur stdDeviation="2"/>
<feColorMatrix type="matrix" values="0 0 0 0 0 0 0 0 0 0 0 0 0 0 0 0 0 0 0.06 0"/>
<feBlend mode="normal" in2="effect1_dropShadow" result="effect2_dropShadow"/>
<feBlend mode="normal" in="SourceGraphic" in2="effect2_dropShadow" result="shape"/>
</filter>
<linearGradient id="paint0_linear" x1="247.447" y1="74.6389" x2="170.972" y2="202.942" gradientUnits="userSpaceOnUse">
<stop stop-color="#934019"/>
<stop offset="1" stop-color="#C4592B"/>
</linearGradient>
<linearGradient id="paint1_linear" x1="247.447" y1="74.6389" x2="170.972" y2="202.942" gradientUnits="userSpaceOnUse">
<stop stop-color="#934019"/>
<stop offset="1" stop-color="#C4592B"/>
</linearGradient>
<linearGradient id="paint2_linear" x1="247.447" y1="74.6389" x2="170.972" y2="202.942" gradientUnits="userSpaceOnUse">
<stop stop-color="#934019"/>
<stop offset="1" stop-color="#C4592B"/>
</linearGradient>
<linearGradient id="paint3_linear" x1="247.447" y1="74.6389" x2="170.972" y2="202.942" gradientUnits="userSpaceOnUse">
<stop stop-color="#934019"/>
<stop offset="1" stop-color="#C4592B"/>
</linearGradient>
<linearGradient id="paint4_linear" x1="247.447" y1="74.6389" x2="170.972" y2="202.942" gradientUnits="userSpaceOnUse">
<stop stop-color="#934019"/>
<stop offset="1" stop-color="#C4592B"/>
</linearGradient>
<linearGradient id="paint5_linear" x1="247.447" y1="74.6389" x2="170.972" y2="202.942" gradientUnits="userSpaceOnUse">
<stop stop-color="#934019"/>
<stop offset="1" stop-color="#C4592B"/>
</linearGradient>
<linearGradient id="paint6_linear" x1="247.447" y1="74.6389" x2="170.972" y2="202.942" gradientUnits="userSpaceOnUse">
<stop stop-color="#934019"/>
<stop offset="1" stop-color="#C4592B"/>
</linearGradient>
<linearGradient id="paint7_linear" x1="247.447" y1="74.6389" x2="170.972" y2="202.942" gradientUnits="userSpaceOnUse">
<stop stop-color="#934019"/>
<stop offset="1" stop-color="#C4592B"/>
</linearGradient>
<linearGradient id="paint8_linear" x1="247.447" y1="74.6389" x2="170.972" y2="202.942" gradientUnits="userSpaceOnUse">
<stop stop-color="#934019"/>
<stop offset="1" stop-color="#C4592B"/>
</linearGradient>
<linearGradient id="paint9_linear" x1="247.447" y1="74.6389" x2="170.972" y2="202.942" gradientUnits="userSpaceOnUse">
<stop stop-color="#934019"/>
<stop offset="1" stop-color="#C4592B"/>
</linearGradient>
<linearGradient id="paint10_linear" x1="247.447" y1="74.6389" x2="170.972" y2="202.942" gradientUnits="userSpaceOnUse">
<stop stop-color="#934019"/>
<stop offset="1" stop-color="#C4592B"/>
</linearGradient>
<linearGradient id="paint11_linear" x1="247.447" y1="74.6389" x2="170.972" y2="202.942" gradientUnits="userSpaceOnUse">
<stop stop-color="#934019"/>
<stop offset="1" stop-color="#C4592B"/>
</linearGradient>
<linearGradient id="paint12_linear" x1="247.447" y1="74.6389" x2="170.972" y2="202.942" gradientUnits="userSpaceOnUse">
<stop stop-color="#934019"/>
<stop offset="1" stop-color="#C4592B"/>
</linearGradient>
<linearGradient id="paint13_linear" x1="247.447" y1="74.6389" x2="170.972" y2="202.942" gradientUnits="userSpaceOnUse">
<stop stop-color="#934019"/>
<stop offset="1" stop-color="#C4592B"/>
</linearGradient>
<linearGradient id="paint14_linear" x1="247.447" y1="74.6389" x2="170.972" y2="202.942" gradientUnits="userSpaceOnUse">
<stop stop-color="#934019"/>
<stop offset="1" stop-color="#C4592B"/>
</linearGradient>
<linearGradient id="paint15_linear" x1="247.447" y1="74.6389" x2="170.972" y2="202.942" gradientUnits="userSpaceOnUse">
<stop stop-color="#934019"/>
<stop offset="1" stop-color="#C4592B"/>
</linearGradient>
<linearGradient id="paint16_linear" x1="247.447" y1="74.6389" x2="170.972" y2="202.942" gradientUnits="userSpaceOnUse">
<stop stop-color="#934019"/>
<stop offset="1" stop-color="#C4592B"/>
</linearGradient>
<linearGradient id="paint17_linear" x1="247.447" y1="74.6389" x2="170.972" y2="202.942" gradientUnits="userSpaceOnUse">
<stop stop-color="#934019"/>
<stop offset="1" stop-color="#C4592B"/>
</linearGradient>
<linearGradient id="paint18_linear" x1="247.447" y1="74.6389" x2="170.972" y2="202.942" gradientUnits="userSpaceOnUse">
<stop stop-color="#934019"/>
<stop offset="1" stop-color="#C4592B"/>
</linearGradient>
<linearGradient id="paint19_linear" x1="247.447" y1="74.6389" x2="170.972" y2="202.942" gradientUnits="userSpaceOnUse">
<stop stop-color="#934019"/>
<stop offset="1" stop-color="#C4592B"/>
</linearGradient>
<linearGradient id="paint20_linear" x1="247.447" y1="74.6389" x2="170.972" y2="202.942" gradientUnits="userSpaceOnUse">
<stop stop-color="#934019"/>
<stop offset="1" stop-color="#C4592B"/>
</linearGradient>
<linearGradient id="paint21_linear" x1="247.447" y1="74.6389" x2="170.972" y2="202.942" gradientUnits="userSpaceOnUse">
<stop stop-color="#934019"/>
<stop offset="1" stop-color="#C4592B"/>
</linearGradient>
<linearGradient id="paint22_linear" x1="247.447" y1="74.6389" x2="170.972" y2="202.942" gradientUnits="userSpaceOnUse">
<stop stop-color="#934019"/>
<stop offset="1" stop-color="#C4592B"/>
</linearGradient>
<linearGradient id="paint23_linear" x1="247.447" y1="74.6389" x2="170.972" y2="202.942" gradientUnits="userSpaceOnUse">
<stop stop-color="#934019"/>
<stop offset="1" stop-color="#C4592B"/>
</linearGradient>
<linearGradient id="paint24_linear" x1="247.447" y1="74.6389" x2="170.972" y2="202.942" gradientUnits="userSpaceOnUse">
<stop stop-color="#934019"/>
<stop offset="1" stop-color="#C4592B"/>
</linearGradient>
<linearGradient id="paint25_linear" x1="247.447" y1="74.6389" x2="170.972" y2="202.942" gradientUnits="userSpaceOnUse">
<stop stop-color="#934019"/>
<stop offset="1" stop-color="#C4592B"/>
</linearGradient>
<linearGradient id="paint26_linear" x1="247.447" y1="74.6389" x2="170.972" y2="202.942" gradientUnits="userSpaceOnUse">
<stop stop-color="#934019"/>
<stop offset="1" stop-color="#C4592B"/>
</linearGradient>
<linearGradient id="paint27_linear" x1="247.447" y1="74.6389" x2="170.972" y2="202.942" gradientUnits="userSpaceOnUse">
<stop stop-color="#934019"/>
<stop offset="1" stop-color="#C4592B"/>
</linearGradient>
<linearGradient id="paint28_linear" x1="247.447" y1="74.6389" x2="170.972" y2="202.942" gradientUnits="userSpaceOnUse">
<stop stop-color="#934019"/>
<stop offset="1" stop-color="#C4592B"/>
</linearGradient>
<linearGradient id="paint29_linear" x1="247.447" y1="74.6389" x2="170.972" y2="202.942" gradientUnits="userSpaceOnUse">
<stop stop-color="#934019"/>
<stop offset="1" stop-color="#C4592B"/>
</linearGradient>
<linearGradient id="paint30_linear" x1="247.447" y1="74.6389" x2="170.972" y2="202.942" gradientUnits="userSpaceOnUse">
<stop stop-color="#934019"/>
<stop offset="1" stop-color="#C4592B"/>
</linearGradient>
</defs>
</svg>
